<svg class="diagram-root" style="background: #f5f6f6" xmlns="http://www.w3.org/2000/svg" xmlns:xlink="http://www.w3.org/1999/xlink"><style>.diagram-root { font-family: "Helvetica Neue", sans-serif; font-size: 12px; } .t { overflow: visible; } .t-bg { y: 40; fill: #fff;   } .th { fill: #005aa0;   } .tht { fill: #fff; font-size: 14px;  } .tf { fill: #323c46; overflow: visible; } .tf.pk { fill: #005aa0; font-weight: bold; } .tf.fk { font-weight: bold; } .ty { fill: #adb1b5; font-weight: normal; text-anchor: end; } .r { fill: transparent; stroke: #c3c3c3; stroke-width: 1; } .l { stroke: 1; } .i { fill: #c2c7ce; stroke: #c2c7ce; } .i.ix { fill: #afb3b6; stroke: #000; } .fa { fill: transparent; overflow: visible; } .fa .bg.hover { fill: #f7f7f7; } .c { cy: 12; r: 4; stroke: #d2d2dc; fill: #d2d2dc; } .hr { fill: transparent; stroke: #323c46; stroke-opacity: 0.035; stroke-width: 13; } .dc { stroke: #fa5a3c; fill: #fa5a3c; } .x { stroke: white; stroke-width: 1; } .hl .th { fill: #1b9bff; } .hl .tht {  } .fhl .bg { fill: #e7f4ff; } .fhls .bg {  } .r.hl { stroke: #1b9bff; } .dim { opacity: 0.25; }</style><g class="drawing-wrapper" transform="translate(242, -53) scale(1,1)"><g class="rs"><path d="M 565 558 m -1, 0 a 1,1 0 1,0 2,0 a 1,1 0 1,0 -2,0 M 565 558 m -0.5, 0 a 0.5,0.5 0 1,0 1,0 a 0.5,0.5 0 1,0 -1,0  M565 558 L565 558 577 558 M571 564 L571 564 571 552 M577 558 Q 593.75 558, 610.5 427 T 644 296 M 656 296 m -1, 0 a 1,1 0 1,0 2,0 a 1,1 0 1,0 -2,0 M 656 296 m -0.5, 0 a 0.5,0.5 0 1,0 1,0 a 0.5,0.5 0 1,0 -1,0  M656 296 L656 296 644 296 M650 302 L650 302 650 290" id="h1248694035" class="r"></path><path d="M 417 583 m -1, 0 a 1,1 0 1,0 2,0 a 1,1 0 1,0 -2,0 M 417 583 m -0.5, 0 a 0.5,0.5 0 1,0 1,0 a 0.5,0.5 0 1,0 -1,0  M417 583 L417 583 405 583 M411 589 L411 589 411 577 M405 583 Q 385.5 583, 366 437.5 T 327 292 M 315 292 m -1, 0 a 1,1 0 1,0 2,0 a 1,1 0 1,0 -2,0 M 315 292 m -0.5, 0 a 0.5,0.5 0 1,0 1,0 a 0.5,0.5 0 1,0 -1,0  M315 292 L315 292 327 292 M321 298 L321 298 321 286" id="h1130742295" class="r"></path><path d="M 402 140 m -1, 0 a 1,1 0 1,0 2,0 a 1,1 0 1,0 -2,0 M 402 140 m -0.5, 0 a 0.5,0.5 0 1,0 1,0 a 0.5,0.5 0 1,0 -1,0  M402 140 L402 140 390 140 M396 146 L396 146 396 134 M390 140 Q 374.25 140, 358.5 216 T 327 292 M 315 292 m -1, 0 a 1,1 0 1,0 2,0 a 1,1 0 1,0 -2,0 M 315 292 m -0.5, 0 a 0.5,0.5 0 1,0 1,0 a 0.5,0.5 0 1,0 -1,0  M315 292 L315 292 327 292 M321 298 L321 298 321 286" id="h1277105345" class="r"></path><path d="M 550 165 m -1, 0 a 1,1 0 1,0 2,0 a 1,1 0 1,0 -2,0 M 550 165 m -0.5, 0 a 0.5,0.5 0 1,0 1,0 a 0.5,0.5 0 1,0 -1,0  M550 165 L550 165 562 165 M 550 171 m -1, 0 a 1,1 0 1,0 2,0 a 1,1 0 1,0 -2,0 M 550 171 m -0.5, 0 a 0.5,0.5 0 1,0 1,0 a 0.5,0.5 0 1,0 -1,0  M550 171 L550 171 557 165 550 159 M 550 159 m -1, 0 a 1,1 0 1,0 2,0 a 1,1 0 1,0 -2,0 M 550 159 m -0.5, 0 a 0.5,0.5 0 1,0 1,0 a 0.5,0.5 0 1,0 -1,0  M562 165 Q 582.5 165, 603 230.5 T 644 296 M 656 296 m -1, 0 a 1,1 0 1,0 2,0 a 1,1 0 1,0 -2,0 M 656 296 m -0.5, 0 a 0.5,0.5 0 1,0 1,0 a 0.5,0.5 0 1,0 -1,0  M656 296 L656 296 644 296 M650 302 L650 302 650 290" id="h1882043173" class="r"></path><path d="M 145 317 m -1, 0 a 1,1 0 1,0 2,0 a 1,1 0 1,0 -2,0 M 145 317 m -0.5, 0 a 0.5,0.5 0 1,0 1,0 a 0.5,0.5 0 1,0 -1,0  M145 317 L145 317 133 317 M 145 323 m -1, 0 a 1,1 0 1,0 2,0 a 1,1 0 1,0 -2,0 M 145 323 m -0.5, 0 a 0.5,0.5 0 1,0 1,0 a 0.5,0.5 0 1,0 -1,0  M145 323 L145 323 138 317 145 311 M 145 311 m -1, 0 a 1,1 0 1,0 2,0 a 1,1 0 1,0 -2,0 M 145 311 m -0.5, 0 a 0.5,0.5 0 1,0 1,0 a 0.5,0.5 0 1,0 -1,0  M133 317 Q 88.5 317, 44 355 T -45 393 M -57 393 m -1, 0 a 1,1 0 1,0 2,0 a 1,1 0 1,0 -2,0 M -57 393 m -0.5, 0 a 0.5,0.5 0 1,0 1,0 a 0.5,0.5 0 1,0 -1,0  M-57 393 L-57 393 -45 393 M-51 399 L-51 399 -51 387" id="h133153459" class="r"></path><path d="M -72 250 m -1, 0 a 1,1 0 1,0 2,0 a 1,1 0 1,0 -2,0 M -72 250 m -0.5, 0 a 0.5,0.5 0 1,0 1,0 a 0.5,0.5 0 1,0 -1,0  M-72 250 L-72 250 -60 250 M-66 256 L-66 256 -66 244 M-60 250 Q -11.75 250, 36.5 271 T 133 292 M 145 292 m -1, 0 a 1,1 0 1,0 2,0 a 1,1 0 1,0 -2,0 M 145 292 m -0.5, 0 a 0.5,0.5 0 1,0 1,0 a 0.5,0.5 0 1,0 -1,0  M145 292 L145 292 133 292 M 145 298 m -1, 0 a 1,1 0 1,0 2,0 a 1,1 0 1,0 -2,0 M 145 298 m -0.5, 0 a 0.5,0.5 0 1,0 1,0 a 0.5,0.5 0 1,0 -1,0  M145 298 L145 298 138 292 145 286 M 145 286 m -1, 0 a 1,1 0 1,0 2,0 a 1,1 0 1,0 -2,0 M 145 286 m -0.5, 0 a 0.5,0.5 0 1,0 1,0 a 0.5,0.5 0 1,0 -1,0 " id="h221257298" class="r"></path></g><g class="hrs"></g><g class="ts"><svg width="165" height="100" x="656" y="239" id="h3708248841" class="t"><rect height="40" width="165" class="th"></rect><text x="13" y="25" class="tht">Departments</text><rect height="60" width="165" class="t-bg" y="40"></rect><text x="13" y="61" class="tf pk">dept_no<tspan x="152" class="ty">INTEGER</tspan></text><path d="M7,14A2,2 0 0,1 5,12A2,2 0 0,1 7,10A2,2 0 0,1 9,12A2,2 0 0,1 7,14M12.65,10C11.83,7.67 9.61,6 7, 6A6, 6 0 0, 0 1, 12A6, 6 0 0, 0 7, 18C9.61, 18 11.83, 16.33 12.65, 14H17V18H21V14H23V10H12.65Z" class="i pk" transform="translate(79, 48) scale(0.65)"></path><text x="13" y="86" class="tf">dept_name<tspan x="152" class="ty">VARCHAR</tspan></text></svg><svg width="148" height="100" x="402" y="83" id="h3353995054" class="t"><rect height="40" width="148" class="th"></rect><text x="13" y="25" class="tht">Dept_Emp</text><rect height="60" width="148" class="t-bg" y="40"></rect><text x="13" y="61" class="tf fk">emp_no<tspan x="135" class="ty">VARCHAR</tspan></text><text x="13" y="86" class="tf fk">dept_no<tspan x="135" class="ty">VARCHAR</tspan></text></svg><svg width="170" height="225" x="145" y="235" id="h3299212598" class="t"><rect height="40" width="170" class="th"></rect><text x="13" y="25" class="tht">Employees</text><rect height="185" width="170" class="t-bg" y="40"></rect><text x="13" y="61" class="tf pk">emp_no<tspan x="157" class="ty">VARCHAR</tspan></text><path d="M7,14A2,2 0 0,1 5,12A2,2 0 0,1 7,10A2,2 0 0,1 9,12A2,2 0 0,1 7,14M12.65,10C11.83,7.67 9.61,6 7, 6A6, 6 0 0, 0 1, 12A6, 6 0 0, 0 7, 18C9.61, 18 11.83, 16.33 12.65, 14H17V18H21V14H23V10H12.65Z" class="i pk" transform="translate(81, 48) scale(0.65)"></path><text x="13" y="86" class="tf fk">emp_title_id<tspan x="157" class="ty">VARCHAR</tspan></text><text x="13" y="111" class="tf">birth_date<tspan x="157" class="ty">DATE</tspan></text><text x="13" y="136" class="tf">first_name<tspan x="157" class="ty">VARCHAR</tspan></text><text x="13" y="161" class="tf">last_name<tspan x="157" class="ty">VARCHAR</tspan></text><text x="13" y="186" class="tf">sex<tspan x="157" class="ty">VARCHAR</tspan></text><text x="13" y="211" class="tf">hire_date<tspan x="157" class="ty">DATE</tspan></text></svg><svg width="148" height="100" x="417" y="501" id="h754932316" class="t"><rect height="40" width="148" class="th"></rect><text x="13" y="25" class="tht">Dept_Manager</text><rect height="60" width="148" class="t-bg" y="40"></rect><text x="13" y="61" class="tf fk">dept_no<tspan x="135" class="ty">VARCHAR</tspan></text><text x="13" y="86" class="tf fk">emp_no<tspan x="135" class="ty">VARCHAR</tspan></text></svg><svg width="158" height="100" x="-215" y="336" id="h3517680912" class="t"><rect height="40" width="158" class="th"></rect><text x="13" y="25" class="tht">Titles</text><rect height="60" width="158" class="t-bg" y="40"></rect><text x="13" y="61" class="tf pk">title_id<tspan x="145" class="ty">VARCHAR</tspan></text><path d="M7,14A2,2 0 0,1 5,12A2,2 0 0,1 7,10A2,2 0 0,1 9,12A2,2 0 0,1 7,14M12.65,10C11.83,7.67 9.61,6 7, 6A6, 6 0 0, 0 1, 12A6, 6 0 0, 0 7, 18C9.61, 18 11.83, 16.33 12.65, 14H17V18H21V14H23V10H12.65Z" class="i pk" transform="translate(69, 48) scale(0.65)"></path><text x="13" y="86" class="tf">title<tspan x="145" class="ty">VARCHAR</tspan></text></svg><svg width="148" height="100" x="-220" y="193" id="h3858243705" class="t"><rect height="40" width="148" class="th"></rect><text x="13" y="25" class="tht">Salaries</text><rect height="60" width="148" class="t-bg" y="40"></rect><text x="13" y="61" class="tf fk">emp_no<tspan x="135" class="ty">VARCHAR</tspan></text><text x="13" y="86" class="tf">salary<tspan x="135" class="ty">INTEGER</tspan></text></svg></g></g><text class="qdbd-link" x="10" y="20">www.quickdatabasediagrams.com</text></svg>